<svg class="yellenge-logo" preserveAspectRatio="xMinYMin meet" xmlns="http://www.w3.org/2000/svg" xmlns:xlink="http://www.w3.org/1999/xlink" version="1.1" x="0px" y="0px" viewBox="0 0 400 400" enable-background="new 0 0 400 400" xml:space="preserve">
    <rect class="yellenge-logo__background yellenge-logo__theme-color" width="100%" height="100%" fill="#b0ca2a" />
    <g class="yellenge-logo-background-inner yellenge-logo__theme-color" fill="#b0ca2a">
        <path d="M201.502 123.994c42.249 0 76.5 34 76.5 76 c0 41.975-34.249 76.002-76.498 76.002c-42.248 0-76.498-34.027-76.498-76.002C125.005 158 159.3 124 201.5 123.994z"></path>
    </g>
    <g class="yellenge-logo__ring-outer" fill="#FFF" opacity="0.4">
        <path d="M368.836 192.323c-4.049-92.888-82.774-164.898-175.838-160.842 C99.934 35.5 27.8 114.1 31.8 207.014c4.049 92.9 82.8 164.9 175.8 160.8 c24.532-1.07 47.608-7.323 68.222-17.647l85.604 11.604l-16.938-74.855C361.293 259.5 370.3 226.9 368.8 192.323z M201.18 276.653c-42.248 0-76.498-34.027-76.498-76.002c0-41.976 34.25-76.003 76.498-76.003 c42.249 0 76.5 34 76.5 76.003C277.677 242.6 243.4 276.7 201.2 276.653z"></path>
    </g>
    <g class="yellenge-logo__ring-inner" fill="#FFF">
        <path d="M200.17 73.678c-70.224 0-127.152 56.848-127.152 127 c0 17.2 3.4 33.5 9.6 48.47l-15.286 84.539l85.021-15.329c14.762 6 30.9 9.3 47.8 9.3 c70.224 0 127.152-56.848 127.152-126.973S270.395 73.7 200.2 73.678z M200.825 276.343c-42.248 0-76.498-34.027-76.498-76.002 s34.25-76.002 76.498-76.002c42.249 0 76.5 34 76.5 76.002S243.074 276.3 200.8 276.343z"></path>
    </g>
</svg>

